<svg version="1.1" preserveAspectRatio="none" xmlns="http://www.w3.org/2000/svg" width="500" height="500" viewBox="0 0 500 500"><rect width="100%" height="100%" fill="#232128" fill-opacity="1"/><svg viewBox="52.5945 232.4679 505.4934 120" width="333" height="79.05147722996976" x="83.5px" y="210.4743px" xmlns="http://www.w3.org/2000/svg" xmlns:xlink="http://www.w3.org/1999/xlink" preserveAspectRatio="none"><defs></defs><style>.companyName {fill:#A5AEAD;fill-opacity:1;}.icon1 {fill:#A4747F;fill-opacity:1;}.icon2 {fill:#8CA6A2;fill-opacity:1;}.icon3 {fill:#5E718C;fill-opacity:1;}.icon3-str {stroke:#5E718C;stroke-opacity:1;}</style><g opacity="1" transform="rotate(0 52.5945 232.4679)">
<svg width="120" height="120" x="52.5945" y="232.4679" version="1.1" preserveAspectRatio="none" viewBox="20 20 160 160">
  <g transform="matrix(1 0 0 1 0 0)" class="icon1"><g><path d="M20 20v160h160V20H20zm157.9 157.9H22.1V22.1H178v155.8h-.1z"></path><path d="M168.6 143.5c.5 1.9 1.2 3.8 2 5.5v-3c-.3-.9-.6-1.8-.9-2.8-2.2-8.2-1.7-16.3.9-24v-2.6c-3.5 9.2-4.2 18.5-2 26.9z"></path><path d="M170.6 111.4V109c-7.1 12.5-9.3 25.9-6.3 37.4 1.3 4.9 3.4 9.1 6.3 12.6v-2c-2.3-3.1-4.1-6.8-5.2-11-2.8-10.6-1-22.9 5.2-34.6z"></path><path d="M161.1 148.9c-3.4-13.4-.2-29.2 9.4-43.4v-2.2c-10.6 14.9-14.3 31.7-10.6 45.9 1.9 7.1 5.4 12.9 10.6 17.3v-1.7c-4.5-4.1-7.7-9.4-9.4-15.9z"></path><path d="M156.9 151.7c-4.1-15.9.7-34.7 13.7-51v-2c-14 16.8-19.2 36.7-15 53.3 2.1 8.2 6.4 14.8 12.8 19.5h2.2c-6.9-4.6-11.5-11.3-13.7-19.8z"></path><path d="M152.6 154.5c-3.5-14-.6-29.8 8.2-44.6 2.8-4.7 6.1-9.1 9.8-13.2v-2c-4.2 4.5-7.9 9.3-11 14.5-9 15.1-12 31.3-8.4 45.6 1.7 6.6 4.7 12.2 9 16.7h1.9c-4.5-4.4-7.7-10.1-9.5-17z"></path><path d="M157.1 110.2c3.7-6.2 8.2-11.9 13.5-17.1v-2c-5.7 5.5-10.7 11.7-14.7 18.4-9.6 15.9-12.8 33.1-9 48.2 1.3 5.3 3.5 9.9 6.4 13.9h1.8c-3.1-4-5.4-8.8-6.8-14.2-3.7-14.9-.6-31.6 8.8-47.2z"></path><path d="M153.4 110.5c4.6-7.6 10.4-14.5 17.2-20.7v-2c-7.3 6.5-13.5 13.8-18.4 21.9-10 16.5-13.5 35-9.6 50.8 1 4 2.5 7.7 4.4 11.1h1.7c-2.1-3.4-3.6-7.2-4.7-11.4-3.8-15.4-.4-33.5 9.4-49.7z"></path><path d="M149.7 110.8c5.5-9 12.5-17.1 20.9-24.1v-2c-8.9 7.3-16.4 15.8-22.2 25.3-10.6 17.3-14.3 36.8-10.2 53.3.7 2.9 1.7 5.7 2.9 8.2h1.7c-1.3-2.7-2.3-5.5-3.1-8.6-4-16.1-.4-35.1 10-52.1z"></path><path d="M146 111.1c6.4-10.3 14.7-19.5 24.5-27.3v-2c-10.5 8.1-19.3 17.6-25.9 28.5-11.2 18.2-15.1 38.5-10.8 55.9.5 1.9 1 3.7 1.7 5.4h1.7c-.7-1.8-1.3-3.8-1.8-5.8-4.2-17-.3-36.9 10.6-54.7z"></path><path d="M142.3 111.4c7.2-11.7 16.8-21.9 28.2-30.4v-2c-12.1 8.8-22.1 19.4-29.7 31.5-11.7 19-15.9 40.3-11.3 58.5.2.9.5 1.7.7 2.6h1.8l-.9-3c-4.3-17.8-.3-38.6 11.2-57.2z"></path><path d="M138.6 111.7c8-12.9 18.9-24.2 31.9-33.3v-2.1c-13.7 9.4-25 21-33.4 34.5-12.3 19.7-16.6 41.8-12 60.8h1.8v-.2c-4.6-18.5-.3-40.3 11.7-59.7z"></path><path d="M135 112c8.9-14.2 21-26.4 35.6-36.1v-2.2c-15.3 10-27.9 22.6-37.1 37.4-12.2 19.6-16.9 41.4-13.2 60.5h1.8c-3.8-18.8.8-40.3 12.9-59.6z"></path><path d="M131.3 112.3c9.7-15.5 23.1-28.6 39.3-38.9v-2.2c-16.9 10.5-30.8 24.1-40.9 40.1-12.2 19.4-17.3 41-14.3 60.2h1.9c-3-18.8 2-40.1 14-59.2z"></path><path d="M127.6 112.6c10.5-16.7 25.2-30.8 43-41.6v-2.2c-18.5 11-33.7 25.5-44.6 42.8-12.1 19.3-17.5 40.7-15.3 60h1.9c-2.3-19 3-40 15-59z"></path><path d="M123.9 112.9C135.2 95 151.2 80 170.6 68.7v-2.3c-.2.1-.4.2-.5.3-19.9 11.5-36.2 26.8-47.8 45.2-12.1 19.2-17.8 40.3-16.2 59.7h2c-1.7-19 3.9-39.8 15.8-58.7z"></path><path d="M120.2 113.2c12.1-19 29.1-34.8 49.8-46.5.2-.1.4-.2.5-.3v-2.2c-2.6 1.4-5.2 2.9-7.7 4.5-18.2 11.5-33.3 26.1-44.4 43.5-12.1 19.1-18 40-17 59.5h2c-.9-19.2 4.9-39.8 16.8-58.5z"></path><path d="M170 66.7c.2-.1.4-.2.5-.3-.1.1-.3.2-.5.3z"></path><path d="M116.5 113.5c11.5-18 27.2-33.2 46.3-44.9 2.5-1.6 5.1-3.1 7.7-4.6v-2.1c-5.3 2.8-10.4 5.8-15.3 9-16.5 11.2-30.3 25.2-40.6 41.4-12.1 18.9-18.2 39.8-17.8 59.2h2.1c-.3-19 5.8-39.4 17.6-58z"></path><path d="M162.8 68.6c2.5-1.6 5.1-3 7.7-4.5V64c-2.6 1.5-5.1 3-7.7 4.6z"></path><path d="M155.3 71c4.9-3.3 10-6.4 15.3-9.2v-2c-7.8 4-15.3 8.5-22.2 13.4-15 11-27.7 24.3-37.4 39.5-12 18.8-18.4 39.5-18.5 58.9h2.2c.1-19 6.3-39.3 18.1-57.8C123.6 96.9 138 82.5 155.3 71z"></path><path d="M155.3 71c4.9-3.2 10-6.3 15.3-9v-.2c-5.3 2.8-10.4 5.8-15.3 9.2z"></path><path d="M148.4 73.2c6.9-5.1 14.3-9.6 22.2-13.7v-1.9c-10.9 5.3-20.9 11.6-30.1 18.7-13.2 10.5-24.4 22.7-33.2 36.6-12 18.8-18.6 39.2-19.1 58.7h2.2c.5-19 7-39.1 18.7-57.5 10.2-15.9 23.5-29.6 39.3-40.9z"></path><path d="M148.4 73.2c6.9-5 14.3-9.4 22.2-13.4v-.3c-7.9 4-15.3 8.6-22.2 13.7z"></path><path d="M140.5 76.3c9.1-7.2 19.2-13.6 30.1-19.1v-1.7c-13.4 6.4-25.6 14.1-36.5 23.1-12 10.1-22.2 21.6-30.5 34.5-12 18.7-18.7 39-19.7 58.4h2.3c1-19 7.6-38.9 19.3-57.2 9.2-14.4 21.1-27.2 35-38z"></path><path d="M140.5 76.3c9.2-7.1 19.2-13.4 30.1-18.7v-.4c-10.9 5.5-21 11.9-30.1 19.1z"></path><path d="M134 78.6c10.9-9.1 23.1-17 36.5-23.5v-1.7c-16 7.4-30.4 16.7-43 27.6-10.8 9.6-20.1 20.4-27.8 32.3-12 18.6-18.8 38.7-20.2 58.1h2.3c1.4-19 8.1-38.7 19.8-56.9 8.9-13.4 19.7-25.4 32.4-35.9z"></path><path d="M134 78.6c10.9-9 23.2-16.7 36.5-23.1v-.4c-13.3 6.5-25.6 14.4-36.5 23.5z"></path><path d="M127.6 81.1c12.5-11.2 27-20.6 43-28.2v-1.5c-15.6 7.1-29.8 15.8-42.3 26.1-.1.1-.3.2-.4.3-.2.2-.5.4-.7.6-12.3 10.5-22.8 22.4-31.1 35.3-11.9 18.5-19 38.5-20.7 57.9h2.4c1.7-18.9 8.6-38.5 20.3-56.6 8.1-12.6 18-23.9 29.5-33.9z"></path><path d="M127.6 81.1c12.6-10.9 27-20.2 43-27.6V53c-16.1 7.5-30.5 16.9-43 28.1z"></path><path d="M127.2 78.4c.2-.2.5-.4.7-.6.1-.1.3-.2.4-.3 5.4-4.5 11.1-8.8 17.1-12.7 8-5.2 16.4-9.9 25.2-13.9v-1.5c-10 4.4-19.5 9.6-28.5 15.4-10.4 6.8-19.9 14.5-28.5 22.9-8.1 8.2-15.3 17-21.3 26.2-11.9 18.4-19.1 38.3-21.2 57.6h2.5c2.1-18.9 9.1-38.3 20.8-56.3 8.9-13.7 19.9-26.1 32.8-36.8z"></path><path d="M145.3 64.8c-6 3.9-11.7 8.2-17.1 12.7 12.5-10.3 26.7-19.1 42.3-26.1v-.5c-8.8 4-17.2 8.7-25.2 13.9z"></path><path d="M127.9 77.8c-.2.2-.5.4-.7.6.2-.2.4-.4.7-.6z"></path><path d="M113.6 87.7c8.8-8.8 18.7-16.9 29.4-24 8.7-5.7 17.9-10.7 27.6-15v-1.3c-10.8 4.7-21.1 10.2-30.8 16.4-12.1 7.8-23.1 16.9-32.8 27-6.9 7.4-13.2 15.2-18.5 23.4-11.9 18.3-19.2 38.1-21.6 57.3h2.5c2.4-18.8 9.6-38.1 21.2-56 6.5-9.8 14.2-19.2 23-27.8z"></path><path d="M143 63.7c-10.8 7-20.7 15.1-29.4 24 8.6-8.4 18.1-16.1 28.5-22.9 9-5.8 18.5-11 28.5-15.4v-.7c-9.7 4.4-18.9 9.4-27.6 15z"></path><path d="M107 90.8c9.9-10.5 21.2-20 33.7-28.1 9.4-6.1 19.4-11.5 29.9-16.1v-2.1c-11.3 4.8-22.1 10.5-32.2 17.1-21.8 14.2-40.3 32.4-53.6 52.8-11.8 18.2-19.3 37.8-22 57.1h2.6c2.7-18.7 10-37.9 21.5-55.7 5.8-8.7 12.6-17.1 20.1-25z"></path><path d="M140.7 62.7c-12.5 8.1-23.8 17.6-33.7 28.1 9.7-10 20.7-19.1 32.8-27 9.7-6.3 19.9-11.8 30.8-16.4v-.7c-10.5 4.5-20.5 9.9-29.9 16z"></path><path d="M81.6 168.2c-4 .7-7.6 1.9-11 3.4h16.6c5.8-.9 11.9-.9 18 0h10.1c-11.5-4.1-23.1-5.3-33.7-3.4z"></path><path d="M79 163.5c-1.5.3-2.9.6-4.3 1-5.3 1.6-10.1 3.9-14.4 7h10c3.9-1.9 8.2-3.3 12.8-4.1 11.7-2.1 24.4-.6 36.7 4.1h4.5c-14.9-7.6-30.9-10.5-45.3-8z"></path><path d="M81.3 158.3c-1 .1-2.1.3-3.1.5-10.4 1.9-19 6.2-25.9 12.8h7.6c4.3-3.2 9.3-5.5 14.9-7 1.9-.6 3.9-1.1 6-1.4 15.1-2.7 31.8.4 47.4 8.5h3.3c-16.3-10.3-34-15-50.2-13.4z"></path><path d="M88.8 153.4c-4.5-.1-8.9.2-13.2 1-12.6 2.3-22.9 8-30.5 17.2h6.2c6.6-6.6 15-10.8 25-12.6 1.6-.3 3.2-.5 4.8-.6 17.2-2.2 36.1 2.6 53.1 13.3h2.8c-.1-.1-.3-.2-.4-.3-14.9-11-31.8-17.2-47.8-18z"></path><path d="M96.8 149.9c-8.1-1.2-16-1.2-23.6.2-14.7 2.6-26.3 9.9-34.4 21.5h5.4c7.3-9.2 17.3-15 29.8-17.3 4.8-.9 9.8-1.1 14.9-.9 16.9.3 34.7 6.6 50.5 18l.2.2h2.5c-1.7-1.4-3.5-2.8-5.4-4.1-12.5-9.2-26.3-15.2-39.9-17.6z"></path><path d="M105.6 147.8c-11.9-3.3-23.8-4-35-2.1-15.4 2.8-27.5 10.4-35.8 22.6-.7 1-1.4 2.1-2 3.2h4.7c.2-.3.4-.6.6-1 7.7-11.3 18.9-18.4 33.2-20.9 8.2-1.4 16.8-1.3 25.4.2 14.4 2.1 29.1 8.3 42.4 17.9 1.7 1.2 3.3 2.5 4.9 3.8h2.5c-3.1-2.8-6.4-5.5-9.8-8-9.8-7.1-20.4-12.5-31.1-15.7z"></path><path d="M115.2 147.2c-15.8-6.4-32.1-8.5-47.1-5.9-15.9 2.8-28.3 10.7-36.9 23.3-.6.9-1.2 1.9-1.8 2.9v4h2c.9-1.6 1.9-3.3 2.9-4.8 8-11.8 19.6-19.1 34.5-21.7 11.7-2.1 24.4-1.1 36.8 2.8 11.5 3.2 22.9 8.7 33.5 16.4 3.2 2.3 6.2 4.8 9.2 7.4h2.5c-4.4-4.3-9-8.2-14-11.8-6.9-5.2-14.2-9.3-21.6-12.6z"></path><path d="M136.9 155.9c-3.6-2.6-7.2-5-11-7.2-19.7-10.8-41-15-60.2-11.7-15.3 2.7-27.5 9.9-36.2 21.5v6c.4-.6.7-1.1 1.1-1.7 8.3-12.2 20.3-19.8 35.7-22.5 15.6-2.7 32.6-.3 49 6.9 8.2 3.3 16.2 7.8 23.8 13.3 4.6 3.4 9 7 13.1 11h2.6c-5.6-5.7-11.5-10.9-17.9-15.6z"></path><path d="M137.4 152.4C114 135.7 87 128.5 63.1 132.7c-13.8 2.4-25.1 8.4-33.7 17.8v4.8c8.4-10.4 19.9-17 34.3-19.6 19.8-3.5 41.9 1.2 62.2 12.9 4.4 2.4 8.8 5.2 13 8.3 6 4.4 11.6 9.3 16.8 14.6h2.7c-6.4-7.1-13.4-13.5-21-19.1z"></path><path d="M150.6 159.6c-3.8-3.5-7.8-6.8-11.9-9.8-24.5-18-52.9-25.8-78-21.4-12.4 2.2-22.9 7.2-31.2 14.8v4c8.3-8.4 18.9-13.7 31.7-16 24.4-4.3 52 3.4 75.8 20.9.2.1.3.2.5.4.4.3.9.6 1.3 1 7.3 5.4 14.1 11.5 20.2 18.2h2.8c-3.5-4.4-7.3-8.4-11.2-12.1z"></path><path d="M138.5 146.1C113.3 127.5 84 119.5 58.1 124c-11.1 2-20.7 6.1-28.7 12.4v3.3c7.9-6.7 17.7-11.2 29.1-13.2 25.2-4.4 53.8 3.5 78.4 21.7 4.7 3.5 9.3 7.3 13.5 11.4 4.1 3.8 7.9 7.7 11.6 12h3l-.1-.1c-7.7-9.6-16.6-18.1-26.4-25.4z"></path><path d="M138.4 142.5c-25.9-19.2-56.1-27.5-82.8-22.9-10 1.7-18.7 5.2-26.2 10.3v2.8c7.5-5.4 16.4-9 26.6-10.8 26.1-4.5 55.6 3.6 81 22.5 10.4 7.7 19.8 16.8 28 27.1l.1.1h2.9c-8.6-11.1-18.5-20.9-29.6-29.1z"></path><path d="M138.3 138.9c-26.7-19.8-57.7-28.4-85.2-23.6-8.8 1.5-16.7 4.4-23.7 8.5v2.3c7-4.3 15-7.3 24-8.9 26.9-4.7 57.4 3.8 83.7 23.3 11.8 8.7 22.2 19.2 31.2 31h2.2v-.3c-9.2-12.4-20-23.2-32.2-32.3z"></path><path d="M138.2 135.3c-27.4-20.4-59.3-29.3-87.6-24.4-7.8 1.4-14.8 3.7-21.2 7v1.9c6.4-3.4 13.6-5.9 21.5-7.2 27.8-4.8 59.2 3.9 86.3 24.1 12.7 9.4 23.8 20.8 33.4 33.7v-2.6c-9.5-12.6-20.5-23.6-32.4-32.5z"></path><path d="M138 131.7c-28.2-21-60.9-30.1-89.9-25.1-6.7 1.2-13 3.1-18.7 5.7v1.5c5.8-2.7 12.1-4.7 18.9-5.9 28.6-5 61 4.1 88.9 24.8 12.6 9.4 23.7 20.6 33.3 33.4V164c-9.5-12.4-20.5-23.4-32.5-32.3z"></path><path d="M137.9 128.1c-28.9-21.6-62.5-31-92.3-25.8-5.8 1-11.2 2.5-16.2 4.6v1.2c5.1-2.1 10.5-3.6 16.4-4.7 29.5-5.1 62.8 4.2 91.5 25.6 12.3 9.2 23.5 20.5 33.3 33.3v-1.8c-9.7-12.5-20.7-23.4-32.7-32.4z"></path><path d="M137.8 124.5c-29.6-22.2-64.1-31.9-94.7-26.6-4.8.8-9.4 2-13.7 3.6v.9c4.3-1.6 8.9-2.8 13.8-3.6 30.3-5.2 64.6 4.4 94.1 26.4 12.2 9.1 23.4 20.3 33.2 33v-1.3c-9.7-12.5-20.7-23.4-32.7-32.4z"></path></g></g>
</svg>
</g><g opacity="1" transform="rotate(0 190.5945 262.4679)">
<svg width="367.4934" height="60" x="190.5945" y="262.4679" version="1.1" preserveAspectRatio="none" viewBox="1.7969 -27.2461 168.55460000000002 27.5196">
  <g transform="matrix(1 0 0 1 0 0)" class="companyName"><path id="id-D6z1nYkh7" d="M22.21-23.65L22.21-23.65L22.21-23.03Q22.21-21.41 21.09-21.41L21.09-21.41Q21.00-21.41 18.34-22.73Q15.68-24.06 13.67-24.06L13.67-24.06Q13.01-24.06 12.10-23.59Q11.19-23.13 10.75-22.31Q10.31-21.50 10.31-19.41L10.31-19.41Q10.31-15.27 13.13-15.27L13.13-15.27Q13.98-15.27 15.28-16.03Q16.58-16.78 16.78-16.78L16.78-16.78Q18.28-16.78 18.28-13.40L18.28-13.40Q18.28-11.54 17.58-10.78L17.58-10.78Q17.27-10.43 16.86-10.43Q16.45-10.43 15.30-10.89Q14.16-11.35 13.71-11.35L13.71-11.35Q11.84-11.35 10.92-10.49L10.92-10.49Q10.29-9.90 10.29-8.05Q10.29-6.19 10.82-4.44Q11.35-2.70 11.83-1.76Q12.30-0.82 12.30-0.80L12.30-0.80Q12.30 0.23 10.27 0.23L10.27 0.23L9.61 0.21L8.93 0.21Q4.06 0.21 2.75-0.20L2.75-0.20Q1.89-0.47 1.89-1.19Q1.89-1.91 3.12-2.60Q4.34-3.28 4.55-4.26L4.55-4.26Q4.63-4.63 4.63-12.35Q4.63-20.08 4.35-21.58Q4.06-23.09 2.93-24.25Q1.80-25.41 1.80-26.05Q1.80-26.70 2.79-26.86L2.79-26.86Q4.55-27.15 11.62-27.15L11.62-27.15L13.73-27.21L15.84-27.21L16.52-27.19Q20.37-27.19 21.05-26.74L21.05-26.74Q22.21-25.98 22.21-23.65Z M31.19-11.80L31.19-11.80L31.19-11.60Q31.19-11.37 33.01-11.37L33.01-11.37L35.25-11.37Q37.93-11.37 37.93-11.68L37.93-11.68Q37.93-12.52 36.27-16.84Q34.61-21.15 34.56-21.15Q34.51-21.15 32.85-16.83Q31.19-12.50 31.19-11.80ZM35.04-27.15L35.04-27.15L35.61-27.15Q37.05-27.15 38.85-24.06L38.85-24.06Q39.47-22.99 40.72-19.61Q41.97-16.23 42.87-14.00Q43.77-11.78 44.83-8.70Q45.90-5.63 46.38-4.62Q46.86-3.61 48.09-2.70Q49.32-1.78 49.32-1.10Q49.32-0.43 48.48-0.21L48.48-0.21Q47.11 0.12 41.70 0.12L41.70 0.12Q39.24 0.12 39.24-0.94L39.24-0.94Q39.24-1.21 39.63-2.28Q40.02-3.34 40.02-3.85L40.02-3.85Q40.02-6.25 38.87-7.89L38.87-7.89Q38.40-8.55 35.92-8.55L35.92-8.55Q31.37-8.55 30.77-8.26Q30.18-7.97 29.56-6.78Q28.95-5.59 28.95-4.57Q28.95-3.55 29.50-2.38Q30.06-1.21 30.06-0.55L30.06-0.55Q30.06 0.27 28.30 0.27L28.30 0.27Q24.12 0.27 22.71-0.12L22.71-0.12Q21.82-0.37 21.82-1.39L21.82-1.39Q21.82-1.52 23.59-3.09L23.59-3.09Q24.57-3.95 25.16-5.33L25.16-5.33Q29.38-15.39 30.52-19.91Q31.66-24.43 32.46-25.79Q33.26-27.15 35.04-27.15Z M62.64-24.47L62.64-24.47L62.03-24.47Q60.70-24.47 60.42-24.11Q60.14-23.75 60.14-22.23L60.14-22.23L60.14-15.14Q60.14-14.36 60.47-14.02Q60.80-13.69 61.93-13.69L61.93-13.69L62.70-13.69L62.85-13.71L63.30-13.73Q63.46-13.75 63.59-13.75L63.59-13.75Q64.98-13.75 66.30-15.07Q67.62-16.39 67.62-18.52L67.62-18.52L67.62-19.45Q67.62-21.56 66.29-23.02Q64.96-24.47 62.64-24.47ZM61.72-27.07L61.72-27.07L63.05-27.07Q68.05-27.07 70.86-25.16Q73.67-23.24 73.67-19.77L73.67-19.77Q73.67-17.79 72.85-16.31Q72.03-14.82 71.19-14.06L71.19-14.06Q69.28-12.32 69.28-12.17L69.28-12.17Q69.28-11.45 69.99-10.25Q70.70-9.06 71.62-7.40Q72.54-5.74 72.93-5.21L72.93-5.21Q73.95-3.85 75.14-3.32L75.14-3.32Q77.27-2.40 77.27-1.95L77.27-1.95Q77.27-0.70 76.21-0.39L76.21-0.39Q74.71 0.06 72.70 0.06Q70.68 0.06 69.45-1.20Q68.22-2.46 66.60-5.83Q64.98-9.20 64.51-9.79L64.51-9.79Q63.54-11.05 61.95-11.05L61.95-11.05Q61.09-11.05 60.79-10.21Q60.49-9.36 60.49-5.98L60.49-5.98Q60.49-5.16 61.33-3.40L61.33-3.40L62.05-2.09Q62.58-1.11 62.58-1.00L62.58-1.00Q62.58 0.02 59.39 0.02L59.39 0.02Q53.85 0.02 52.90-0.25Q51.95-0.53 51.95-1.35Q51.95-2.17 53.14-2.89Q54.34-3.61 54.59-4.60Q54.84-5.59 54.84-13.17Q54.84-20.76 54.55-22.07Q54.26-23.38 53.50-24.12L53.50-24.12Q52.13-25.45 52.13-25.82L52.13-25.82Q52.13-26.60 53.76-26.84Q55.39-27.07 61.72-27.07Z M82.44-0.25L82.44-0.25Q79.94-0.25 79.94-1.05Q79.94-1.86 81.24-2.76Q82.54-3.67 82.83-4.80Q83.13-5.94 83.13-13.76Q83.13-21.58 82.97-22.19L82.97-22.19Q82.62-23.57 81.64-24.26L81.64-24.26Q79.86-25.51 79.86-26.21L79.86-26.21L79.86-26.48Q79.86-27.19 84.79-27.19L84.79-27.19L86.11-27.25L87.44-27.25L87.89-27.23L88.34-27.23Q90.57-27.23 91.04-27.06Q91.52-26.89 91.52-26.05L91.52-26.05Q91.52-25.55 90.08-24.38L90.08-24.38Q89.30-23.73 89.02-22.54Q88.75-21.35 88.75-13.34Q88.75-5.33 88.96-4.45Q89.18-3.57 90.37-2.56Q91.56-1.54 91.56-0.88L91.56-0.88Q91.56-0.10 90-0.10L90-0.10L88.63-0.10L88.18-0.12L87.27-0.12L85.94-0.16L84.18-0.20L83.32-0.23Q82.89-0.25 82.44-0.25Z M102.95-27.13L102.95-27.13L106.72-27.13Q114.86-27.13 115.56-26.94Q116.25-26.76 116.25-25.55Q116.25-24.34 109.32-14.17Q102.38-4.00 102.38-3.69L102.38-3.69Q102.38-2.85 105.68-2.85Q108.98-2.85 110.59-3.53Q112.19-4.20 113.75-5.76Q115.31-7.32 116.09-7.32L116.09-7.32Q117.01-7.32 117.01-5.76L117.01-5.76Q117.01-2.38 116.09-0.88L116.09-0.88Q115.55 0.02 113.11 0.02L113.11 0.02L98.03 0.02Q96.39 0.02 95.90-0.18L95.90-0.18Q95.10-0.51 95.10-1.57Q95.10-2.64 96.09-4.21Q97.09-5.78 102.97-14.34Q108.85-22.89 108.85-23.24L108.85-23.24Q108.85-24.30 106.50-24.30Q104.16-24.30 102.71-23.79Q101.27-23.28 99.30-21.87Q97.32-20.45 96.64-20.45L96.64-20.45Q95.70-20.45 95.70-22.13L95.70-22.13Q95.70-25.98 96.60-26.72L96.60-26.72Q97.09-27.13 102.95-27.13Z M128.22-11.80L128.22-11.80L128.22-11.60Q128.22-11.37 130.04-11.37L130.04-11.37L132.29-11.37Q134.96-11.37 134.96-11.68L134.96-11.68Q134.96-12.52 133.30-16.84Q131.64-21.15 131.59-21.15Q131.54-21.15 129.88-16.83Q128.22-12.50 128.22-11.80ZM132.07-27.15L132.07-27.15L132.64-27.15Q134.08-27.15 135.88-24.06L135.88-24.06Q136.50-22.99 137.75-19.61Q139.00-16.23 139.90-14.00Q140.80-11.78 141.87-8.70Q142.93-5.63 143.41-4.62Q143.89-3.61 145.12-2.70Q146.35-1.78 146.35-1.10Q146.35-0.43 145.51-0.21L145.51-0.21Q144.14 0.12 138.73 0.12L138.73 0.12Q136.27 0.12 136.27-0.94L136.27-0.94Q136.27-1.21 136.66-2.28Q137.05-3.34 137.05-3.85L137.05-3.85Q137.05-6.25 135.90-7.89L135.90-7.89Q135.43-8.55 132.95-8.55L132.95-8.55Q128.40-8.55 127.80-8.26Q127.21-7.97 126.59-6.78Q125.98-5.59 125.98-4.57Q125.98-3.55 126.53-2.38Q127.09-1.21 127.09-0.55L127.09-0.55Q127.09 0.27 125.33 0.27L125.33 0.27Q121.15 0.27 119.75-0.12L119.75-0.12Q118.85-0.37 118.85-1.39L118.85-1.39Q118.85-1.52 120.63-3.09L120.63-3.09Q121.60-3.95 122.19-5.33L122.19-5.33Q126.41-15.39 127.55-19.91Q128.69-24.43 129.49-25.79Q130.29-27.15 132.07-27.15Z M160.18-25.96L160.18-25.96Q160.18-25.70 158.97-24.35Q157.77-22.99 157.55-22.05Q157.32-21.11 157.32-13.10Q157.32-5.08 157.55-4.24Q157.77-3.40 158.50-3.10Q159.22-2.79 160.98-2.79Q162.73-2.79 164.05-3.44Q165.37-4.08 166.89-5.74Q168.42-7.40 169.51-7.40L169.51-7.40Q170.35-7.40 170.35-6.35L170.35-6.35L170.35-5.84Q170.35-4.38 169.88-2.59Q169.41-0.80 169.14-0.55L169.14-0.55Q168.54 0.02 166.21 0.02L166.21 0.02L155.72 0.02Q150.59 0.02 150.04-0.08L150.04-0.08Q149.10-0.25 149.10-1.13L149.10-1.13Q149.10-1.60 150.14-2.64Q151.17-3.67 151.56-5.33L151.56-5.33Q151.72-6.00 151.72-14.08Q151.72-22.17 151.48-22.95Q151.25-23.73 149.98-24.53Q148.71-25.33 148.71-26.33L148.71-26.33Q148.71-27.13 152.52-27.13L152.52-27.13L157.70-27.13Q159.22-27.13 159.70-26.90Q160.18-26.68 160.18-25.96Z"/></g>
</svg>
</g></svg></svg>