<svg version="1.1" preserveAspectRatio="none" xmlns="http://www.w3.org/2000/svg" width="500" height="500" viewBox="0 0 500 500"><rect width="100%" height="100%" fill="#FFFFFF" fill-opacity="1"/><svg viewBox="-1.7115 135.5949 391.2799 60" width="333" height="51.063190314657106" x="83.5px" y="224.4684px" xmlns="http://www.w3.org/2000/svg" xmlns:xlink="http://www.w3.org/1999/xlink" preserveAspectRatio="none"><defs></defs><style>.companyName-str {stroke:#3F3C3C;stroke-opacity:1;}.companyTransparent {fill:#F3F0ED;fill-opacity:0;}</style><g opacity="1" transform="rotate(0 -1.7115 135.5949)">
<svg width="391.2799" height="60" x="-1.7115" y="135.5949" version="1.1" preserveAspectRatio="none" viewBox="2.28 -28 182.6 28">
  <g transform="matrix(1 0 0 1 0 0)" class="companyTransparent"><defs><path id="id-D6z1nYkh7" d="M25.04-20.88L11.72-20.88L11.72-16.08L23.40-16.08L23.40-8.96L11.72-8.96L11.72 0L2.28 0L2.28-28L25.04-28L25.04-20.88Z M48 0L46.12-4.88L35.48-4.88L33.60 0L24 0L36.24-28L45.52-28L57.76 0L48 0ZM38.08-11.68L43.52-11.68L40.80-18.72L38.08-11.68Z M76.04 0L71.28-7.04L68.72-7.04L68.72 0L59.28 0L59.28-28L72.76-28Q76.64-28 79.52-26.72Q82.40-25.44 83.96-23.04Q85.52-20.64 85.52-17.44L85.52-17.44Q85.52-14.44 84.16-12.20Q82.80-9.96 80.24-8.64L80.24-8.64L86.12 0L76.04 0ZM76-17.44Q76-19 75.04-19.86Q74.08-20.72 72.16-20.72L72.16-20.72L68.72-20.72L68.72-14.16L72.16-14.16Q74.08-14.16 75.04-15.02Q76-15.88 76-17.44L76-17.44Z M89.08 0L89.08-28L98.52-28L98.52 0L89.08 0Z M114.36-7.32L127.80-7.32L127.80 0L102.08 0L102.08-5.80L114.88-20.68L102.48-20.68L102.48-28L127.16-28L127.16-22.20L114.36-7.32Z M151.52 0L149.64-4.88L139-4.88L137.12 0L127.52 0L139.76-28L149.04-28L161.28 0L151.52 0ZM141.60-11.68L147.04-11.68L144.32-18.72L141.60-11.68Z M162.80 0L162.80-28L172.24-28L172.24-7.32L184.88-7.32L184.88 0L162.80 0Z"/></defs>
  <clipPath id="id-D6z1nYkh7-clip"><use xlink:href="#id-D6z1nYkh7" /></clipPath>
  <g clip-path="url(#id-D6z1nYkh7-clip)"><use xlink:href="#id-D6z1nYkh7" class="companyName-str" style="stroke-width:2;"/></g>
  </g>
</svg>
</g></svg></svg>